<mxfile host="65bd71144e">
    <diagram id="DR3CO1FoClz0u77_QCgz" name="Page-1">
        <mxGraphModel dx="1479" dy="682" grid="1" gridSize="10" guides="1" tooltips="1" connect="1" arrows="1" fold="1" page="1" pageScale="1" pageWidth="827" pageHeight="1169" math="0" shadow="0">
            <root>
                <mxCell id="0"/>
                <mxCell id="1" parent="0"/>
                <mxCell id="88" value="Input Graph&lt;br&gt;&lt;br&gt;&lt;br&gt;&lt;br&gt;&lt;br&gt;&lt;br&gt;&lt;br&gt;&lt;br&gt;&lt;br&gt;&lt;br&gt;" style="rounded=1;whiteSpace=wrap;html=1;fillColor=#b1ddf0;strokeColor=#10739e;" parent="1" vertex="1">
                    <mxGeometry x="-70" y="210" width="130" height="180" as="geometry"/>
                </mxCell>
                <mxCell id="89" value="" style="rounded=1;whiteSpace=wrap;html=1;fillColor=#fad9d5;strokeColor=#ae4132;" parent="1" vertex="1">
                    <mxGeometry x="148" y="160" width="120" height="270" as="geometry"/>
                </mxCell>
                <mxCell id="90" value="1" style="text;html=1;align=center;verticalAlign=middle;resizable=0;points=[];autosize=1;strokeColor=none;fillColor=none;" parent="1" vertex="1">
                    <mxGeometry x="100" y="198" width="30" height="30" as="geometry"/>
                </mxCell>
                <mxCell id="91" value="2" style="ellipse;whiteSpace=wrap;html=1;aspect=fixed;" parent="1" vertex="1">
                    <mxGeometry x="158" y="200" width="20" height="20" as="geometry"/>
                </mxCell>
                <mxCell id="92" value="3" style="ellipse;whiteSpace=wrap;html=1;aspect=fixed;" parent="1" vertex="1">
                    <mxGeometry x="198" y="215" width="20" height="20" as="geometry"/>
                </mxCell>
                <mxCell id="93" value="4" style="ellipse;whiteSpace=wrap;html=1;aspect=fixed;" parent="1" vertex="1">
                    <mxGeometry x="237" y="235" width="20" height="20" as="geometry"/>
                </mxCell>
                <mxCell id="94" value="" style="endArrow=none;html=1;rounded=0;" parent="1" edge="1">
                    <mxGeometry width="50" height="50" relative="1" as="geometry">
                        <mxPoint x="198" y="220" as="sourcePoint"/>
                        <mxPoint x="178" y="210" as="targetPoint"/>
                        <Array as="points"/>
                    </mxGeometry>
                </mxCell>
                <mxCell id="95" value="" style="endArrow=none;html=1;rounded=0;exitX=0.095;exitY=0.186;exitDx=0;exitDy=0;exitPerimeter=0;entryX=0.957;entryY=0.729;entryDx=0;entryDy=0;entryPerimeter=0;" parent="1" source="93" target="92" edge="1">
                    <mxGeometry width="50" height="50" relative="1" as="geometry">
                        <mxPoint x="238" y="240" as="sourcePoint"/>
                        <mxPoint x="218" y="230" as="targetPoint"/>
                    </mxGeometry>
                </mxCell>
                <mxCell id="96" value="2" style="text;html=1;align=center;verticalAlign=middle;resizable=0;points=[];autosize=1;strokeColor=none;fillColor=none;" parent="1" vertex="1">
                    <mxGeometry x="100" y="257.5" width="30" height="30" as="geometry"/>
                </mxCell>
                <mxCell id="97" value="3" style="text;html=1;align=center;verticalAlign=middle;resizable=0;points=[];autosize=1;strokeColor=none;fillColor=none;" parent="1" vertex="1">
                    <mxGeometry x="100" y="315" width="30" height="30" as="geometry"/>
                </mxCell>
                <mxCell id="98" value="4" style="text;html=1;align=center;verticalAlign=middle;resizable=0;points=[];autosize=1;strokeColor=none;fillColor=none;" parent="1" vertex="1">
                    <mxGeometry x="100" y="370" width="30" height="30" as="geometry"/>
                </mxCell>
                <mxCell id="99" value="1" style="ellipse;whiteSpace=wrap;html=1;aspect=fixed;" parent="1" vertex="1">
                    <mxGeometry x="168" y="260" width="20" height="20" as="geometry"/>
                </mxCell>
                <mxCell id="100" value="3" style="ellipse;whiteSpace=wrap;html=1;aspect=fixed;" parent="1" vertex="1">
                    <mxGeometry x="217" y="280" width="20" height="20" as="geometry"/>
                </mxCell>
                <mxCell id="101" value="" style="endArrow=none;html=1;rounded=0;exitX=0.038;exitY=0.259;exitDx=0;exitDy=0;exitPerimeter=0;" parent="1" source="100" edge="1">
                    <mxGeometry width="50" height="50" relative="1" as="geometry">
                        <mxPoint x="208" y="280" as="sourcePoint"/>
                        <mxPoint x="188" y="270" as="targetPoint"/>
                        <Array as="points"/>
                    </mxGeometry>
                </mxCell>
                <mxCell id="102" value="1" style="ellipse;whiteSpace=wrap;html=1;aspect=fixed;" parent="1" vertex="1">
                    <mxGeometry x="168" y="380" width="20" height="20" as="geometry"/>
                </mxCell>
                <mxCell id="103" value="3" style="ellipse;whiteSpace=wrap;html=1;aspect=fixed;" parent="1" vertex="1">
                    <mxGeometry x="208" y="395" width="20" height="20" as="geometry"/>
                </mxCell>
                <mxCell id="104" value="" style="endArrow=none;html=1;rounded=0;exitX=0.049;exitY=0.265;exitDx=0;exitDy=0;exitPerimeter=0;" parent="1" source="103" edge="1">
                    <mxGeometry width="50" height="50" relative="1" as="geometry">
                        <mxPoint x="208" y="400" as="sourcePoint"/>
                        <mxPoint x="188" y="390" as="targetPoint"/>
                        <Array as="points"/>
                    </mxGeometry>
                </mxCell>
                <mxCell id="105" value="2" style="ellipse;whiteSpace=wrap;html=1;aspect=fixed;" parent="1" vertex="1">
                    <mxGeometry x="158" y="310" width="20" height="20" as="geometry"/>
                </mxCell>
                <mxCell id="106" value="1" style="ellipse;whiteSpace=wrap;html=1;aspect=fixed;" parent="1" vertex="1">
                    <mxGeometry x="198" y="325" width="20" height="20" as="geometry"/>
                </mxCell>
                <mxCell id="107" value="4" style="ellipse;whiteSpace=wrap;html=1;aspect=fixed;" parent="1" vertex="1">
                    <mxGeometry x="238" y="344" width="20" height="20" as="geometry"/>
                </mxCell>
                <mxCell id="108" value="" style="endArrow=none;html=1;rounded=0;exitX=0.077;exitY=0.212;exitDx=0;exitDy=0;exitPerimeter=0;" parent="1" source="106" edge="1">
                    <mxGeometry width="50" height="50" relative="1" as="geometry">
                        <mxPoint x="198" y="330" as="sourcePoint"/>
                        <mxPoint x="178" y="320" as="targetPoint"/>
                        <Array as="points"/>
                    </mxGeometry>
                </mxCell>
                <mxCell id="109" value="" style="endArrow=none;html=1;rounded=0;entryX=0.942;entryY=0.765;entryDx=0;entryDy=0;entryPerimeter=0;exitX=0.015;exitY=0.304;exitDx=0;exitDy=0;exitPerimeter=0;" parent="1" source="107" target="106" edge="1">
                    <mxGeometry width="50" height="50" relative="1" as="geometry">
                        <mxPoint x="238" y="350" as="sourcePoint"/>
                        <mxPoint x="218" y="340" as="targetPoint"/>
                    </mxGeometry>
                </mxCell>
                <mxCell id="110" value="Emb 1&lt;br&gt;3 x 512&lt;br&gt;&lt;br&gt;&lt;br&gt;Emb 2&lt;br&gt;2 x 512&lt;br&gt;&lt;br&gt;&lt;br&gt;Emb 3&lt;br&gt;3 x 512&lt;br&gt;&lt;br&gt;&lt;br&gt;Emb 4&lt;br&gt;2 x 512" style="rounded=1;whiteSpace=wrap;html=1;fillColor=#e1d5e7;strokeColor=#9673a6;" parent="1" vertex="1">
                    <mxGeometry x="438" y="190" width="50" height="220" as="geometry"/>
                </mxCell>
                <mxCell id="111" value="Rooted Subgraphs" style="text;html=1;align=center;verticalAlign=middle;resizable=0;points=[];autosize=1;strokeColor=none;fillColor=none;" parent="1" vertex="1">
                    <mxGeometry x="148" y="168" width="120" height="30" as="geometry"/>
                </mxCell>
                <mxCell id="112" value="" style="endArrow=none;html=1;rounded=0;exitX=0;exitY=0.75;exitDx=0;exitDy=0;entryX=1;entryY=0.75;entryDx=0;entryDy=0;" parent="1" source="110" target="110" edge="1">
                    <mxGeometry width="50" height="50" relative="1" as="geometry">
                        <mxPoint x="448" y="380" as="sourcePoint"/>
                        <mxPoint x="498" y="330" as="targetPoint"/>
                    </mxGeometry>
                </mxCell>
                <mxCell id="113" value="" style="endArrow=none;html=1;rounded=0;exitX=0;exitY=0.5;exitDx=0;exitDy=0;" parent="1" source="110" edge="1">
                    <mxGeometry width="50" height="50" relative="1" as="geometry">
                        <mxPoint x="448" y="480" as="sourcePoint"/>
                        <mxPoint x="488" y="300" as="targetPoint"/>
                    </mxGeometry>
                </mxCell>
                <mxCell id="114" value="" style="endArrow=none;html=1;rounded=0;exitX=0;exitY=0.25;exitDx=0;exitDy=0;" parent="1" source="110" edge="1">
                    <mxGeometry width="50" height="50" relative="1" as="geometry">
                        <mxPoint x="448" y="310" as="sourcePoint"/>
                        <mxPoint x="488" y="245" as="targetPoint"/>
                        <Array as="points"/>
                    </mxGeometry>
                </mxCell>
                <mxCell id="115" value="" style="endArrow=classic;html=1;rounded=0;" parent="1" edge="1">
                    <mxGeometry width="50" height="50" relative="1" as="geometry">
                        <mxPoint x="488" y="220" as="sourcePoint"/>
                        <mxPoint x="528" y="220" as="targetPoint"/>
                    </mxGeometry>
                </mxCell>
                <mxCell id="116" value="" style="endArrow=classic;html=1;rounded=0;" parent="1" edge="1">
                    <mxGeometry width="50" height="50" relative="1" as="geometry">
                        <mxPoint x="488" y="330" as="sourcePoint"/>
                        <mxPoint x="528" y="330" as="targetPoint"/>
                    </mxGeometry>
                </mxCell>
                <mxCell id="117" value="" style="endArrow=classic;html=1;rounded=0;" parent="1" edge="1">
                    <mxGeometry width="50" height="50" relative="1" as="geometry">
                        <mxPoint x="488" y="276" as="sourcePoint"/>
                        <mxPoint x="528" y="275.75" as="targetPoint"/>
                    </mxGeometry>
                </mxCell>
                <mxCell id="118" style="edgeStyle=none;html=1;exitX=1;exitY=0.5;exitDx=0;exitDy=0;entryX=0;entryY=0.5;entryDx=0;entryDy=0;" parent="1" source="119" target="136" edge="1">
                    <mxGeometry relative="1" as="geometry"/>
                </mxCell>
                <mxCell id="119" value="512" style="rounded=1;whiteSpace=wrap;html=1;fillColor=#e1d5e7;strokeColor=#9673a6;" parent="1" vertex="1">
                    <mxGeometry x="630" y="210" width="60" height="20" as="geometry"/>
                </mxCell>
                <mxCell id="120" value="4" style="ellipse;whiteSpace=wrap;html=1;aspect=fixed;" parent="1" vertex="1">
                    <mxGeometry x="-20" y="340" width="30" height="30" as="geometry"/>
                </mxCell>
                <mxCell id="121" value="1" style="ellipse;whiteSpace=wrap;html=1;aspect=fixed;" parent="1" vertex="1">
                    <mxGeometry x="-60" y="290" width="30" height="30" as="geometry"/>
                </mxCell>
                <mxCell id="122" value="3" style="ellipse;whiteSpace=wrap;html=1;aspect=fixed;" parent="1" vertex="1">
                    <mxGeometry x="10" y="290" width="30" height="30" as="geometry"/>
                </mxCell>
                <mxCell id="123" value="2" style="ellipse;whiteSpace=wrap;html=1;aspect=fixed;" parent="1" vertex="1">
                    <mxGeometry x="-20" y="245" width="30" height="30" as="geometry"/>
                </mxCell>
                <mxCell id="124" value="" style="endArrow=none;html=1;rounded=0;entryX=0;entryY=1;entryDx=0;entryDy=0;exitX=0.596;exitY=0.005;exitDx=0;exitDy=0;exitPerimeter=0;" parent="1" source="121" target="123" edge="1">
                    <mxGeometry width="50" height="50" relative="1" as="geometry">
                        <mxPoint x="-40" y="290" as="sourcePoint"/>
                        <mxPoint x="-20" y="270" as="targetPoint"/>
                    </mxGeometry>
                </mxCell>
                <mxCell id="125" value="" style="endArrow=none;html=1;rounded=0;entryX=0.751;entryY=0.941;entryDx=0;entryDy=0;exitX=0.255;exitY=0.054;exitDx=0;exitDy=0;entryPerimeter=0;exitPerimeter=0;" parent="1" source="122" target="123" edge="1">
                    <mxGeometry width="50" height="50" relative="1" as="geometry">
                        <mxPoint x="-30" y="300" as="sourcePoint"/>
                        <mxPoint x="-7" y="275" as="targetPoint"/>
                    </mxGeometry>
                </mxCell>
                <mxCell id="126" value="" style="endArrow=none;html=1;rounded=0;" parent="1" edge="1">
                    <mxGeometry width="50" height="50" relative="1" as="geometry">
                        <mxPoint x="-30" y="310" as="sourcePoint"/>
                        <mxPoint x="10" y="310" as="targetPoint"/>
                        <Array as="points">
                            <mxPoint x="-10" y="310"/>
                        </Array>
                    </mxGeometry>
                </mxCell>
                <mxCell id="127" value="" style="endArrow=none;html=1;rounded=0;entryX=0;entryY=0;entryDx=0;entryDy=0;exitX=0.5;exitY=1;exitDx=0;exitDy=0;" parent="1" source="121" target="120" edge="1">
                    <mxGeometry width="50" height="50" relative="1" as="geometry">
                        <mxPoint x="-40" y="325" as="sourcePoint"/>
                        <mxPoint x="23" y="325" as="targetPoint"/>
                    </mxGeometry>
                </mxCell>
                <mxCell id="128" value="" style="endArrow=none;html=1;rounded=0;entryX=0.5;entryY=1;entryDx=0;entryDy=0;exitX=0.876;exitY=0.166;exitDx=0;exitDy=0;exitPerimeter=0;" parent="1" source="120" target="122" edge="1">
                    <mxGeometry width="50" height="50" relative="1" as="geometry">
                        <mxPoint x="-10" y="330" as="sourcePoint"/>
                        <mxPoint x="33" y="335" as="targetPoint"/>
                    </mxGeometry>
                </mxCell>
                <mxCell id="129" value="512" style="rounded=1;whiteSpace=wrap;html=1;fillColor=#e1d5e7;strokeColor=#9673a6;" parent="1" vertex="1">
                    <mxGeometry x="630" y="267.5" width="60" height="20" as="geometry"/>
                </mxCell>
                <mxCell id="130" value="" style="edgeStyle=orthogonalEdgeStyle;rounded=0;orthogonalLoop=1;jettySize=auto;html=1;" parent="1" source="131" target="140" edge="1">
                    <mxGeometry relative="1" as="geometry"/>
                </mxCell>
                <mxCell id="131" value="512" style="rounded=1;whiteSpace=wrap;html=1;fillColor=#e1d5e7;strokeColor=#9673a6;" parent="1" vertex="1">
                    <mxGeometry x="630" y="320" width="60" height="20" as="geometry"/>
                </mxCell>
                <mxCell id="132" style="edgeStyle=none;html=1;exitX=1;exitY=0.5;exitDx=0;exitDy=0;entryX=0;entryY=0.5;entryDx=0;entryDy=0;" parent="1" source="133" target="142" edge="1">
                    <mxGeometry relative="1" as="geometry"/>
                </mxCell>
                <mxCell id="133" value="512" style="rounded=1;whiteSpace=wrap;html=1;fillColor=#e1d5e7;strokeColor=#9673a6;" parent="1" vertex="1">
                    <mxGeometry x="630" y="372.5" width="60" height="20" as="geometry"/>
                </mxCell>
                <mxCell id="134" value="" style="endArrow=classic;html=1;rounded=0;" parent="1" edge="1">
                    <mxGeometry width="50" height="50" relative="1" as="geometry">
                        <mxPoint x="488" y="380" as="sourcePoint"/>
                        <mxPoint x="528" y="380" as="targetPoint"/>
                        <Array as="points"/>
                    </mxGeometry>
                </mxCell>
                <mxCell id="136" value="Local&lt;br&gt;Count" style="rounded=1;whiteSpace=wrap;html=1;fillColor=#d5e8d4;strokeColor=#82b366;" parent="1" vertex="1">
                    <mxGeometry x="725" y="205" width="40" height="30" as="geometry"/>
                </mxCell>
                <mxCell id="138" value="Local&lt;br&gt;Count" style="rounded=1;whiteSpace=wrap;html=1;fillColor=#d5e8d4;strokeColor=#82b366;" parent="1" vertex="1">
                    <mxGeometry x="725" y="265" width="40" height="30" as="geometry"/>
                </mxCell>
                <mxCell id="140" value="Local&lt;br&gt;Count" style="rounded=1;whiteSpace=wrap;html=1;fillColor=#d5e8d4;strokeColor=#82b366;" parent="1" vertex="1">
                    <mxGeometry x="725" y="315" width="40" height="30" as="geometry"/>
                </mxCell>
                <mxCell id="142" value="Local&lt;br&gt;Count" style="rounded=1;whiteSpace=wrap;html=1;fillColor=#d5e8d4;strokeColor=#82b366;" parent="1" vertex="1">
                    <mxGeometry x="725" y="367.5" width="40" height="30" as="geometry"/>
                </mxCell>
                <mxCell id="143" value="" style="endArrow=classic;html=1;rounded=0;exitX=1;exitY=0.5;exitDx=0;exitDy=0;" parent="1" source="129" edge="1">
                    <mxGeometry width="50" height="50" relative="1" as="geometry">
                        <mxPoint x="715" y="270" as="sourcePoint"/>
                        <mxPoint x="725" y="278" as="targetPoint"/>
                    </mxGeometry>
                </mxCell>
                <mxCell id="144" style="edgeStyle=none;html=1;" parent="1" source="145" edge="1">
                    <mxGeometry relative="1" as="geometry">
                        <mxPoint x="430" y="275" as="targetPoint"/>
                    </mxGeometry>
                </mxCell>
                <mxCell id="145" value="Internal GNN" style="rounded=1;whiteSpace=wrap;html=1;fillColor=#fad7ac;strokeColor=#b46504;" parent="1" vertex="1">
                    <mxGeometry x="293" y="260" width="108" height="30" as="geometry"/>
                </mxCell>
                <mxCell id="146" style="edgeStyle=none;html=1;" parent="1" source="147" edge="1">
                    <mxGeometry relative="1" as="geometry">
                        <mxPoint x="431" y="220" as="targetPoint"/>
                    </mxGeometry>
                </mxCell>
                <mxCell id="147" value="Internal GNN" style="rounded=1;whiteSpace=wrap;html=1;fillColor=#fad7ac;strokeColor=#b46504;" parent="1" vertex="1">
                    <mxGeometry x="293" y="205" width="108" height="30" as="geometry"/>
                </mxCell>
                <mxCell id="148" style="edgeStyle=none;html=1;" parent="1" source="149" edge="1">
                    <mxGeometry relative="1" as="geometry">
                        <mxPoint x="431" y="329" as="targetPoint"/>
                    </mxGeometry>
                </mxCell>
                <mxCell id="149" value="Internal GNN" style="rounded=1;whiteSpace=wrap;html=1;fillColor=#fad7ac;strokeColor=#b46504;" parent="1" vertex="1">
                    <mxGeometry x="293" y="314" width="108" height="30" as="geometry"/>
                </mxCell>
                <mxCell id="150" style="edgeStyle=none;html=1;" parent="1" source="151" edge="1">
                    <mxGeometry relative="1" as="geometry">
                        <mxPoint x="431" y="385" as="targetPoint"/>
                    </mxGeometry>
                </mxCell>
                <mxCell id="151" value="Internal GNN" style="rounded=1;whiteSpace=wrap;html=1;fillColor=#fad7ac;strokeColor=#b46504;" parent="1" vertex="1">
                    <mxGeometry x="293" y="370" width="108" height="30" as="geometry"/>
                </mxCell>
                <mxCell id="152" value="" style="endArrow=classic;html=1;entryX=0;entryY=0.5;entryDx=0;entryDy=0;" parent="1" target="147" edge="1">
                    <mxGeometry width="50" height="50" relative="1" as="geometry">
                        <mxPoint x="270" y="220" as="sourcePoint"/>
                        <mxPoint x="440" y="200" as="targetPoint"/>
                    </mxGeometry>
                </mxCell>
                <mxCell id="153" value="" style="endArrow=classic;html=1;entryX=0;entryY=0.5;entryDx=0;entryDy=0;" parent="1" edge="1">
                    <mxGeometry width="50" height="50" relative="1" as="geometry">
                        <mxPoint x="270" y="275" as="sourcePoint"/>
                        <mxPoint x="294" y="274.65999999999997" as="targetPoint"/>
                    </mxGeometry>
                </mxCell>
                <mxCell id="154" value="" style="endArrow=classic;html=1;entryX=0;entryY=0.5;entryDx=0;entryDy=0;" parent="1" edge="1">
                    <mxGeometry width="50" height="50" relative="1" as="geometry">
                        <mxPoint x="270" y="330" as="sourcePoint"/>
                        <mxPoint x="294" y="329.65999999999997" as="targetPoint"/>
                    </mxGeometry>
                </mxCell>
                <mxCell id="155" value="" style="endArrow=classic;html=1;entryX=0;entryY=0.5;entryDx=0;entryDy=0;" parent="1" edge="1">
                    <mxGeometry width="50" height="50" relative="1" as="geometry">
                        <mxPoint x="270" y="385" as="sourcePoint"/>
                        <mxPoint x="294" y="384.6600000000001" as="targetPoint"/>
                    </mxGeometry>
                </mxCell>
                <mxCell id="156" value="Root" style="rounded=1;whiteSpace=wrap;html=1;" parent="1" vertex="1">
                    <mxGeometry x="94" y="173" width="42" height="20" as="geometry"/>
                </mxCell>
                <mxCell id="157" style="edgeStyle=none;html=1;exitX=1;exitY=0.5;exitDx=0;exitDy=0;entryX=0;entryY=0.5;entryDx=0;entryDy=0;" parent="1" source="158" target="119" edge="1">
                    <mxGeometry relative="1" as="geometry"/>
                </mxCell>
                <mxCell id="158" value="Global&lt;br&gt;Add Pool" style="rounded=1;whiteSpace=wrap;html=1;fillColor=#ffe6cc;strokeColor=#d79b00;" parent="1" vertex="1">
                    <mxGeometry x="530" y="205" width="60" height="30" as="geometry"/>
                </mxCell>
                <mxCell id="159" style="edgeStyle=none;html=1;exitX=1;exitY=0.5;exitDx=0;exitDy=0;" parent="1" source="160" target="129" edge="1">
                    <mxGeometry relative="1" as="geometry"/>
                </mxCell>
                <mxCell id="160" value="Global&lt;br&gt;Add Pool" style="rounded=1;whiteSpace=wrap;html=1;fillColor=#ffe6cc;strokeColor=#d79b00;" parent="1" vertex="1">
                    <mxGeometry x="530" y="262.5" width="60" height="30" as="geometry"/>
                </mxCell>
                <mxCell id="161" style="edgeStyle=none;html=1;exitX=1;exitY=0.5;exitDx=0;exitDy=0;" parent="1" source="162" target="131" edge="1">
                    <mxGeometry relative="1" as="geometry"/>
                </mxCell>
                <mxCell id="162" value="Global&lt;br&gt;Add Pool" style="rounded=1;whiteSpace=wrap;html=1;fillColor=#ffe6cc;strokeColor=#d79b00;" parent="1" vertex="1">
                    <mxGeometry x="530" y="315" width="60" height="30" as="geometry"/>
                </mxCell>
                <mxCell id="163" style="edgeStyle=none;html=1;exitX=1;exitY=0.5;exitDx=0;exitDy=0;entryX=0;entryY=0.5;entryDx=0;entryDy=0;" parent="1" source="164" target="133" edge="1">
                    <mxGeometry relative="1" as="geometry"/>
                </mxCell>
                <mxCell id="164" value="Global&lt;br&gt;Add Pool" style="rounded=1;whiteSpace=wrap;html=1;fillColor=#ffe6cc;strokeColor=#d79b00;" parent="1" vertex="1">
                    <mxGeometry x="530" y="367.5" width="60" height="30" as="geometry"/>
                </mxCell>
                <mxCell id="172" value="" style="endArrow=classic;html=1;" parent="1" edge="1">
                    <mxGeometry width="50" height="50" relative="1" as="geometry">
                        <mxPoint x="750" y="200" as="sourcePoint"/>
                        <mxPoint x="340" y="200" as="targetPoint"/>
                        <Array as="points">
                            <mxPoint x="750" y="160"/>
                            <mxPoint x="340" y="160"/>
                        </Array>
                    </mxGeometry>
                </mxCell>
                <mxCell id="173" value="Back Propagation on Local Count Loss" style="edgeLabel;html=1;align=center;verticalAlign=middle;resizable=0;points=[];" parent="172" vertex="1" connectable="0">
                    <mxGeometry x="0.072" y="3" relative="1" as="geometry">
                        <mxPoint x="10" y="-3" as="offset"/>
                    </mxGeometry>
                </mxCell>
                <mxCell id="174" value="" style="shape=flexArrow;endArrow=classic;html=1;fillColor=#1A1A1A;" parent="1" edge="1">
                    <mxGeometry width="50" height="50" relative="1" as="geometry">
                        <mxPoint x="217" y="440" as="sourcePoint"/>
                        <mxPoint x="217" y="500" as="targetPoint"/>
                    </mxGeometry>
                </mxCell>
                <mxCell id="175" value="" style="shape=flexArrow;endArrow=classic;html=1;fillColor=#1A1A1A;" parent="1" edge="1">
                    <mxGeometry width="50" height="50" relative="1" as="geometry">
                        <mxPoint x="559.5" y="410" as="sourcePoint"/>
                        <mxPoint x="560" y="500" as="targetPoint"/>
                    </mxGeometry>
                </mxCell>
                <mxCell id="176" value="&lt;span style=&quot;&quot;&gt;Union of&lt;/span&gt;&lt;br style=&quot;&quot;&gt;&lt;span style=&quot;&quot;&gt;Subgraphs&lt;/span&gt;" style="rounded=1;whiteSpace=wrap;html=1;fillColor=#f8cecc;strokeColor=#b85450;" parent="1" vertex="1">
                    <mxGeometry x="158" y="500" width="120" height="60" as="geometry"/>
                </mxCell>
                <mxCell id="178" value="Node Embeddings" style="rounded=1;whiteSpace=wrap;html=1;fillColor=#e1d5e7;strokeColor=#9673a6;" parent="1" vertex="1">
                    <mxGeometry x="500" y="500" width="120" height="60" as="geometry"/>
                </mxCell>
                <mxCell id="179" value="" style="shape=cross;whiteSpace=wrap;html=1;" parent="1" vertex="1">
                    <mxGeometry x="369" y="515" width="32" height="30" as="geometry"/>
                </mxCell>
                <mxCell id="188" style="edgeStyle=none;html=1;exitX=1;exitY=0.5;exitDx=0;exitDy=0;entryX=0;entryY=0.5;entryDx=0;entryDy=0;fillColor=#1A1A1A;" parent="1" source="184" target="187" edge="1">
                    <mxGeometry relative="1" as="geometry"/>
                </mxCell>
                <mxCell id="184" value="External&lt;br&gt;GNN" style="rounded=1;whiteSpace=wrap;html=1;fillColor=#fad7ac;strokeColor=#b46504;" parent="1" vertex="1">
                    <mxGeometry x="827" y="240" width="60" height="130" as="geometry"/>
                </mxCell>
                <mxCell id="186" value="" style="endArrow=classic;html=1;fillColor=#1A1A1A;" parent="1" edge="1">
                    <mxGeometry width="50" height="50" relative="1" as="geometry">
                        <mxPoint x="390" y="590" as="sourcePoint"/>
                        <mxPoint x="860" y="380" as="targetPoint"/>
                        <Array as="points">
                            <mxPoint x="390" y="620"/>
                            <mxPoint x="860" y="620"/>
                        </Array>
                    </mxGeometry>
                </mxCell>
                <mxCell id="187" value="Global&lt;br&gt;Count" style="rounded=1;whiteSpace=wrap;html=1;fillColor=#d5e8d4;strokeColor=#82b366;" parent="1" vertex="1">
                    <mxGeometry x="940" y="282.5" width="70" height="45" as="geometry"/>
                </mxCell>
                <mxCell id="190" value="" style="endArrow=classic;html=1;fillColor=#1A1A1A;" parent="1" edge="1">
                    <mxGeometry width="50" height="50" relative="1" as="geometry">
                        <mxPoint x="970" y="270" as="sourcePoint"/>
                        <mxPoint x="860" y="230" as="targetPoint"/>
                        <Array as="points">
                            <mxPoint x="970" y="190"/>
                            <mxPoint x="860" y="190"/>
                        </Array>
                    </mxGeometry>
                </mxCell>
                <mxCell id="192" value="Back Propagation on Global Count Loss" style="edgeLabel;html=1;align=center;verticalAlign=middle;resizable=0;points=[];" parent="190" vertex="1" connectable="0">
                    <mxGeometry x="0.1391" relative="1" as="geometry">
                        <mxPoint y="-10" as="offset"/>
                    </mxGeometry>
                </mxCell>
                <mxCell id="194" value="" style="shape=curlyBracket;whiteSpace=wrap;html=1;rounded=1;flipH=1;labelPosition=right;verticalLabelPosition=middle;align=left;verticalAlign=middle;rotation=90;" parent="1" vertex="1">
                    <mxGeometry x="381" y="330" width="20" height="485" as="geometry"/>
                </mxCell>
            </root>
        </mxGraphModel>
    </diagram>
</mxfile>